<?xml version="1.0" encoding="UTF-8" standalone="no"?>
<!-- Created with Inkscape (http://www.inkscape.org/) -->

<svg
   xmlns:dc="http://purl.org/dc/elements/1.1/"
   xmlns:cc="http://creativecommons.org/ns#"
   xmlns:rdf="http://www.w3.org/1999/02/22-rdf-syntax-ns#"
   xmlns:svg="http://www.w3.org/2000/svg"
   xmlns="http://www.w3.org/2000/svg"
   xmlns:sodipodi="http://sodipodi.sourceforge.net/DTD/sodipodi-0.dtd"
   xmlns:inkscape="http://www.inkscape.org/namespaces/inkscape"
   width="265.99622mm"
   height="101.98914mm"
   viewBox="0 0 265.99621 101.98913"
   version="1.1"
   id="svg3237"
   inkscape:version="0.92.3 (2405546, 2018-03-11)"
   sodipodi:docname="timely-logo.svg">
  <defs
     id="defs3231" />
  <sodipodi:namedview
     id="base"
     pagecolor="#ffffff"
     bordercolor="#666666"
     borderopacity="1.0"
     inkscape:pageopacity="0.0"
     inkscape:pageshadow="2"
     inkscape:zoom="0.35"
     inkscape:cx="70.104875"
     inkscape:cy="-284.52923"
     inkscape:document-units="mm"
     inkscape:current-layer="text3847"
     showgrid="false"
     inkscape:window-width="1873"
     inkscape:window-height="1025"
     inkscape:window-x="47"
     inkscape:window-y="27"
     inkscape:window-maximized="1" />
  <metadata
     id="metadata3234">
    <rdf:RDF>
      <cc:Work
         rdf:about="">
        <dc:format>image/svg+xml</dc:format>
        <dc:type
           rdf:resource="http://purl.org/dc/dcmitype/StillImage" />
        <dc:title></dc:title>
      </cc:Work>
    </rdf:RDF>
  </metadata>
  <g
     inkscape:label="Layer 1"
     inkscape:groupmode="layer"
     id="layer1"
     transform="translate(46.882921,-74.978723)">
    <g
       aria-label="imely"
       style="font-style:normal;font-variant:normal;font-weight:normal;font-stretch:normal;font-size:21.1697731px;line-height:125%;font-family:Abel;-inkscape-font-specification:Abel;letter-spacing:0px;word-spacing:0px;fill:#000000;fill-opacity:1;stroke:#ffffff;stroke-width:1.72899997;stroke-linecap:round;stroke-linejoin:round;stroke-miterlimit:4;stroke-dasharray:none;stroke-opacity:1"
       id="text3847">
      <path
         style="opacity:1;vector-effect:none;fill:none;fill-opacity:1;stroke:#fefefe;stroke-width:6.69999981;stroke-linecap:round;stroke-linejoin:miter;stroke-miterlimit:4;stroke-dasharray:none;stroke-dashoffset:0;stroke-opacity:1"
         d="m 54.334883,148.7567 c -9.013211,9.02725 -21.46699,14.61927 -35.229327,14.64071 -27.524691,0.0429 -49.884541,-22.21277 -49.970341,-49.73736 -0.0215,-6.88114 1.35127,-13.44166 3.85248,-19.413807 2.50122,-5.972142 6.13092,-11.355909 10.623441,-15.883554"
         id="path815"
         inkscape:connector-curvature="0"
         sodipodi:nodetypes="csssc" />
      <path
         style="fill:#ff0000;fill-rule:evenodd;stroke:#bae8e8;stroke-width:5;stroke-linecap:round;stroke-linejoin:miter;stroke-miterlimit:4;stroke-dasharray:none;stroke-opacity:1"
         d="M -44.347315,115.77463 H 11.583106"
         id="path836"
         inkscape:connector-curvature="0" />
      <path
         style="opacity:1;vector-effect:none;fill:#ff0000;fill-opacity:1;stroke:#bae8e8;stroke-width:5;stroke-linecap:round;stroke-linejoin:miter;stroke-miterlimit:4;stroke-dasharray:none;stroke-dashoffset:0;stroke-opacity:1"
         id="path861"
         sodipodi:type="arc"
         sodipodi:cx="12.066343"
         sodipodi:cy="115.6767"
         sodipodi:rx="1.9908466"
         sodipodi:ry="1.9908466"
         sodipodi:start="0"
         sodipodi:end="6.2769545"
         sodipodi:open="true"
         d="m 14.05719,115.6767 a 1.9908466,1.9908466 0 0 1 -1.987746,1.99084 1.9908466,1.9908466 0 0 1 -1.993938,-1.98464 1.9908466,1.9908466 0 0 1 1.981534,-1.99703 1.9908466,1.9908466 0 0 1 2.000111,1.97842" />
      <path
         inkscape:connector-curvature="0"
         d="M 52.369862,148.93829 V 98.130829 H 56.43446 V 148.93829 Z M 51.86179,86.445114 q 0,-1.117764 0.711304,-1.829069 0.711303,-0.711304 1.829067,-0.711304 1.117764,0 1.82907,0.711304 0.711303,0.711305 0.711303,1.829069 0,1.117764 -0.711303,1.829068 -0.711306,0.711304 -1.82907,0.711304 -1.117764,0 -1.829067,-0.711304 -0.711304,-0.711304 -0.711304,-1.829068 z"
         style="font-style:normal;font-variant:normal;font-weight:bold;font-stretch:normal;font-size:101.61491394px;line-height:125%;font-family:capsuula;-inkscape-font-specification:'capsuula Bold';letter-spacing:0px;word-spacing:0px;fill:#ffffff;fill-opacity:1;stroke:#ffffff;stroke-width:2;stroke-linecap:round;stroke-linejoin:round;stroke-miterlimit:4;stroke-dasharray:none;stroke-opacity:1"
         id="path922" />
      <path
         inkscape:connector-curvature="0"
         d="m 69.128385,98.130829 h 4.064595 v 5.385591 q 2.032299,-2.23553 4.471056,-4.064597 2.43876,-1.829069 5.690436,-1.829069 4.369443,0 7.214659,2.133913 2.946834,2.133913 4.979133,5.588823 2.032296,-3.45491 4.979126,-5.588823 2.94683,-2.133913 7.21466,-2.133913 3.25167,0 5.89366,1.219379 2.64199,1.117764 4.47106,3.251677 1.82907,2.0323 2.84522,4.97913 1.01615,2.84522 1.01615,6.30013 v 35.56522 h -4.0646 v -35.56522 q 0,-5.48721 -2.54037,-8.53565 -2.43876,-3.15007 -7.62112,-3.15007 -4.87752,0 -7.51951,3.15007 -2.64198,3.04844 -2.64198,8.53565 v 35.56522 h -4.064595 v -35.56522 q 0,-5.48721 -2.540373,-8.53565 -2.438758,-3.15007 -7.62112,-3.15007 -4.877514,0 -7.417887,3.04845 -2.540373,3.04845 -2.743605,8.23081 v 35.97168 h -4.064595 z"
         style="font-style:normal;font-variant:normal;font-weight:bold;font-stretch:normal;font-size:101.61491394px;line-height:125%;font-family:capsuula;-inkscape-font-specification:'capsuula Bold';letter-spacing:0px;word-spacing:0px;fill:#ffffff;fill-opacity:1;stroke:#ffffff;stroke-width:2;stroke-linecap:round;stroke-linejoin:round;stroke-miterlimit:4;stroke-dasharray:none;stroke-opacity:1"
         id="path924" />
      <path
         inkscape:connector-curvature="0"
         d="m 140.235,123.53456 h 7.11305 q 4.87751,0 8.02758,-3.04845 3.15006,-3.04844 3.15006,-7.62112 0,-5.4872 -3.15006,-8.33242 -3.15007,-2.84522 -8.02758,-2.84522 -5.18236,0 -8.23081,2.84522 -2.94683,2.84522 -2.94683,8.33242 v 20.83106 q 0,5.58882 2.94683,8.63727 3.04845,3.04845 8.23081,3.04845 5.69043,0 9.24695,-4.47106 l 3.25168,2.13391 q -2.0323,2.94684 -5.38559,4.67429 -3.35329,1.72745 -7.11304,1.72745 -3.25168,0 -6.0969,-1.11776 -2.7436,-1.11776 -4.7759,-3.15006 -2.0323,-2.0323 -3.25168,-4.97913 -1.11776,-2.94684 -1.11776,-6.50336 v -20.32298 q 0,-3.45491 1.11776,-6.30013 1.21938,-2.94683 3.25168,-4.97913 2.0323,-2.133913 4.7759,-3.251677 2.84522,-1.219379 6.0969,-1.219379 3.15006,0 5.89366,1.219379 2.74361,1.117764 4.7759,3.251677 2.13392,2.0323 3.3533,4.97913 1.21937,2.84522 1.21937,6.30013 0,2.94683 -1.21937,5.58882 -1.21938,2.54037 -3.3533,4.47106 -2.03229,1.93068 -4.7759,3.04844 -2.7436,1.11777 -5.89366,1.11777 H 140.235 Z"
         style="font-style:normal;font-variant:normal;font-weight:bold;font-stretch:normal;font-size:101.61491394px;line-height:125%;font-family:capsuula;-inkscape-font-specification:'capsuula Bold';letter-spacing:0px;word-spacing:0px;fill:#ffffff;fill-opacity:1;stroke:#ffffff;stroke-width:2;stroke-linecap:round;stroke-linejoin:round;stroke-miterlimit:4;stroke-dasharray:none;stroke-opacity:1"
         id="path926" />
      <path
         inkscape:connector-curvature="0"
         d="m 172.92643,77.807846 h 4.0646 v 56.396284 q 0,2.84521 0,4.7759 0.10161,1.93068 0.40645,3.35329 0.40646,1.42261 1.21938,2.23553 0.81292,0.81292 2.43876,0.81292 v 4.06459 q -2.84522,0 -4.47105,-1.11776 -1.62584,-1.21938 -2.43876,-3.15006 -0.81292,-2.0323 -1.01615,-4.67429 -0.20323,-2.7436 -0.20323,-6.30012 z"
         style="font-style:normal;font-variant:normal;font-weight:bold;font-stretch:normal;font-size:101.61491394px;line-height:125%;font-family:capsuula;-inkscape-font-specification:'capsuula Bold';letter-spacing:0px;word-spacing:0px;fill:#ffffff;fill-opacity:1;stroke:#ffffff;stroke-width:2;stroke-linecap:round;stroke-linejoin:round;stroke-miterlimit:4;stroke-dasharray:none;stroke-opacity:1"
         id="path928" />
      <path
         inkscape:connector-curvature="0"
         d="M 200.43232,152.29158 187.12077,98.130829 h 4.26782 l 11.17764,45.625101 11.27926,-45.625101 h 4.26783 L 201.6517,164.28214 q -0.60969,2.64199 -2.13391,4.67429 -1.42261,2.13391 -3.3533,3.65813 -1.93068,1.52423 -4.26782,2.33715 -2.33715,0.91453 -4.7759,1.01615 v -4.0646 q 3.65813,-0.20323 6.60497,-2.54037 3.04844,-2.23553 3.96298,-5.89367 z"
         style="font-style:normal;font-variant:normal;font-weight:bold;font-stretch:normal;font-size:101.61491394px;line-height:125%;font-family:capsuula;-inkscape-font-specification:'capsuula Bold';letter-spacing:0px;word-spacing:0px;fill:#ffffff;fill-opacity:1;stroke:#ffffff;stroke-width:2;stroke-linecap:round;stroke-linejoin:round;stroke-miterlimit:4;stroke-dasharray:none;stroke-opacity:1"
         id="path930" />
    </g>
  </g>
</svg>
